<svg width="3500" height="2500" viewBox="0 0 3500 2500" fill="none" xmlns="http://www.w3.org/2000/svg">
<g opacity="0.2" filter="url(#filter0_f_632_22)">
<ellipse cx="2042.73" cy="1153.67" rx="351.068" ry="229.651" fill="#22D2FF"/>
</g>
<g opacity="0.2" filter="url(#filter1_f_632_22)">
<ellipse cx="627.441" cy="1119.68" rx="365.237" ry="237.89" fill="#4DE8FF"/>
</g>
<g opacity="0.2" filter="url(#filter2_f_632_22)">
<ellipse cx="1313.05" cy="1029.57" rx="367.598" ry="240.465" fill="#25D3FF"/>
</g>
<path opacity="0.0144928" d="M2488.33 2162.53C2498.11 2167.29 2509.87 2165.59 2517.57 2158.29L2862.09 1831.73C2866.94 1827.13 2869.62 1820.83 2869.53 1814.24L2861.13 1175.68C2861.06 1170.37 2859.2 1165.2 2855.83 1160.95L2494.59 705.863C2488.85 698.64 2479.5 694.97 2470.25 696.314L2040.4 758.709C2031.14 760.053 2023.48 766.191 2020.46 774.685L1830.35 1309.81C1828.58 1314.81 1828.55 1320.25 1830.27 1325.32L2037.59 1935C2039.73 1941.29 2044.41 1946.53 2050.57 1949.53L2488.33 2162.53Z" stroke="url(#paint0_linear_632_22)" stroke-width="5"/>
<path opacity="0.0289855" d="M2412.32 2160.86C2421.75 2166.03 2433.46 2164.9 2441.51 2158.05L2802.27 1851.1C2807.4 1846.74 2810.45 1840.54 2810.75 1833.91L2838.9 1201.75C2839.13 1196.39 2837.55 1191.08 2834.39 1186.63L2501.8 719.285C2496.49 711.818 2487.41 707.722 2478.15 708.614L2047.67 750.08C2038.41 750.972 2030.46 756.709 2026.95 765.025L1807.66 1285.53C1805.57 1290.49 1805.23 1295.98 1806.68 1301.18L1977.62 1914.16C1979.41 1920.59 1983.81 1926.07 1989.81 1929.36L2412.32 2160.86Z" stroke="url(#paint1_linear_632_22)" stroke-width="5"/>
<path opacity="0.0434783" d="M2336.86 2157.07C2345.93 2162.63 2357.56 2162.07 2365.95 2155.67L2741.64 1869C2747.03 1864.89 2750.46 1858.81 2751.14 1852.16L2815.08 1228.13C2815.63 1222.74 2814.34 1217.3 2811.4 1212.67L2507.87 734.55C2502.99 726.86 2494.2 722.352 2484.96 722.796L2055.08 743.443C2045.83 743.887 2037.61 749.212 2033.63 757.328L1786.3 1261.91C1783.9 1266.79 1783.23 1272.32 1784.4 1277.64L1919.16 1892.13C1920.6 1898.67 1924.7 1904.38 1930.53 1907.96L2336.86 2157.07Z" stroke="url(#paint2_linear_632_22)" stroke-width="5"/>
<path opacity="0.057971" d="M2262.08 2151.2C2270.76 2157.13 2282.31 2157.13 2290.99 2151.2L2680.3 1885.39C2685.94 1881.55 2689.73 1875.62 2690.79 1868.98L2789.68 1254.74C2790.55 1249.33 2789.56 1243.79 2786.86 1238.99L2512.7 751.583C2508.26 743.691 2499.78 738.788 2490.57 738.788L2062.5 738.788C2053.29 738.788 2044.81 743.691 2040.37 751.583L1766.21 1238.99C1763.51 1243.79 1762.52 1249.33 1763.39 1254.74L1862.27 1868.98C1863.34 1875.62 1867.13 1881.55 1872.77 1885.39L2262.08 2151.2Z" stroke="url(#paint3_linear_632_22)" stroke-width="5"/>
<path opacity="0.0724638" d="M2188.09 2143.31C2196.38 2149.6 2207.81 2150.15 2216.77 2144.69L2618.34 1900.27C2624.2 1896.7 2628.34 1890.94 2629.8 1884.33L2762.69 1281.5C2763.88 1276.09 2763.2 1270.47 2760.75 1265.51L2516.19 770.307C2512.2 762.234 2504.05 756.952 2494.89 756.512L2069.82 736.095C2060.66 735.655 2051.95 740.128 2047.06 747.775L1747.36 1216.84C1744.36 1221.53 1743.04 1227.06 1743.61 1232.55L1807.01 1844.81C1807.71 1851.52 1811.17 1857.64 1816.6 1861.76L2188.09 2143.31Z" stroke="url(#paint4_linear_632_22)" stroke-width="5"/>
<path opacity="0.0869565" d="M2168.29 2133.46C2176.18 2140.08 2187.48 2141.17 2196.69 2136.2L2609.13 1913.6C2615.22 1910.32 2619.7 1904.75 2621.54 1898.2L2787.41 1308.32C2788.92 1302.95 2788.56 1297.25 2786.38 1292.15L2571.54 790.64C2568.01 782.406 2560.2 776.761 2551.12 775.887L2130.21 735.343C2121.13 734.468 2112.21 738.501 2106.89 745.882L1782.97 1195.5C1779.68 1200.07 1778.03 1205.57 1778.29 1211.12L1806.72 1819.71C1807.03 1826.47 1810.16 1832.77 1815.36 1837.14L2168.29 2133.46Z" stroke="url(#paint5_linear_632_22)" stroke-width="5"/>
<path opacity="0.101449" d="M2096.22 2121.71C2103.69 2128.65 2114.84 2130.27 2124.29 2125.78L2546.21 1925.39C2552.48 1922.41 2557.3 1917.05 2559.53 1910.57L2757.27 1335.14C2759.1 1329.8 2759.06 1324.06 2757.15 1318.84L2572.08 812.492C2569.02 804.12 2561.56 798.129 2552.57 796.824L2136.99 736.5C2128 735.195 2118.89 738.781 2113.16 745.876L1766.41 1175.03C1762.84 1179.46 1760.86 1184.9 1760.81 1190.49L1754.85 1793.77C1754.78 1800.56 1757.55 1807.02 1762.52 1811.63L2096.22 2121.71Z" stroke="url(#paint6_linear_632_22)" stroke-width="5"/>
<path opacity="0.115942" d="M2025.26 2108.12C2032.31 2115.37 2043.3 2117.51 2052.95 2113.51L2482.94 1935.62C2489.39 1932.95 2494.52 1927.82 2497.13 1921.45L2725.56 1361.85C2727.7 1356.59 2727.99 1350.83 2726.37 1345.5L2571.03 835.775C2568.44 827.287 2561.35 820.966 2552.47 819.237L2143.33 739.534C2134.45 737.805 2125.17 740.936 2119.04 747.726L1750.91 1155.48C1747.07 1159.74 1744.77 1165.11 1744.4 1170.72L1704.73 1767.08C1704.28 1773.88 1706.69 1780.48 1711.4 1785.32L2025.26 2108.12Z" stroke="url(#paint7_linear_632_22)" stroke-width="5"/>
<path opacity="0.130435" d="M1955.53 2092.77C1962.14 2100.31 1972.95 2102.97 1982.79 2099.47L2419.42 1944.3C2426.03 1941.95 2431.47 1937.07 2434.44 1930.82L2692.3 1388.4C2694.76 1383.23 2695.38 1377.47 2694.05 1372.05L2568.31 860.394C2566.2 851.811 2559.49 845.177 2550.74 843.029L2149.13 744.405C2140.38 742.257 2130.95 744.926 2124.44 751.392L1736.41 1136.88C1732.31 1140.96 1729.69 1146.24 1729 1151.84L1656.39 1739.75C1655.56 1746.53 1657.6 1753.24 1662.05 1758.31L1955.53 2092.77Z" stroke="url(#paint8_linear_632_22)" stroke-width="5"/>
<path opacity="0.144928" d="M1940.39 2075.74C1946.57 2083.56 1957.17 2086.72 1967.18 2083.72L2409.04 1951.42C2415.79 1949.4 2421.51 1944.79 2424.84 1938.68L2710.82 1414.71C2713.58 1409.65 2714.52 1403.9 2713.49 1398.42L2617.16 886.253C2615.53 877.598 2609.21 870.668 2600.6 868.106L2207.58 751.069C2198.97 748.507 2189.41 750.709 2182.55 756.834L1776.14 1119.29C1771.78 1123.17 1768.86 1128.33 1767.85 1133.91L1663.16 1711.87C1661.94 1718.6 1663.61 1725.41 1667.77 1730.68L1940.39 2075.74Z" stroke="url(#paint9_linear_632_22)" stroke-width="5"/>
<path opacity="0.15942" d="M1873.37 2057.11C1879.1 2065.19 1889.49 2068.84 1899.63 2066.35L2345.3 1957C2352.17 1955.31 2358.15 1950.99 2361.83 1945.05L2674.54 1440.69C2677.59 1435.77 2678.86 1430.06 2678.14 1424.52L2610.92 913.253C2609.77 904.547 2603.85 897.337 2595.41 894.368L2211.98 759.476C2203.54 756.507 2193.88 758.235 2186.67 764.004L1763.44 1102.73C1758.85 1106.4 1755.63 1111.42 1754.3 1116.95L1618.46 1683.53C1616.86 1690.2 1618.14 1697.08 1622.02 1702.54L1873.37 2057.11Z" stroke="url(#paint10_linear_632_22)" stroke-width="5"/>
<path opacity="0.173913" d="M1807.84 2036.97C1813.11 2045.28 1823.26 2049.43 1833.53 2047.45L2281.59 1961.04C2288.55 1959.7 2294.78 1955.68 2298.8 1949.92L2636.8 1466.28C2640.14 1461.51 2641.73 1455.87 2641.3 1450.3L2602.83 941.291C2602.17 932.556 2596.67 925.083 2588.41 921.712L2215.55 769.572C2207.29 766.202 2197.55 767.452 2190.02 772.847L1751.54 1087.24C1746.75 1090.68 1743.24 1095.54 1741.6 1101L1575.59 1654.82C1573.62 1661.41 1574.52 1668.35 1578.09 1673.99L1807.84 2036.97Z" stroke="url(#paint11_linear_632_22)" stroke-width="5"/>
<path opacity="0.188406" d="M1743.87 2015.4C1748.67 2023.94 1758.58 2028.57 1768.94 2027.1L2217.99 1963.57C2225.03 1962.58 2231.48 1958.87 2235.82 1953.32L2597.62 1491.41C2601.23 1486.81 2603.13 1481.26 2603.02 1475.67L2592.86 970.264C2592.68 961.521 2587.6 953.801 2579.53 950.036L2218.19 781.299C2210.13 777.534 2200.32 778.301 2192.5 783.31L1740.38 1072.85C1735.39 1076.04 1731.6 1080.72 1729.66 1086.1L1534.57 1625.86C1532.23 1632.34 1532.75 1639.3 1536.01 1645.11L1743.87 2015.4Z" stroke="url(#paint12_linear_632_22)" stroke-width="5"/>
<path opacity="0.202899" d="M1681.54 1992.5C1685.86 2001.25 1695.5 2006.36 1705.94 2005.41L2154.59 1964.6C2161.68 1963.96 2168.34 1960.58 2172.99 1955.26L2557.05 1516.02C2560.91 1511.6 2563.13 1506.15 2563.32 1500.57L2580.95 1000.07C2581.26 991.338 2576.61 983.388 2568.76 979.236L2219.81 794.594C2211.96 790.442 2202.12 790.723 2194.03 795.331L1729.89 1059.58C1724.72 1062.52 1720.67 1067 1718.43 1072.27L1495.4 1596.73C1492.7 1603.08 1492.84 1610.05 1495.77 1616L1681.54 1992.5Z" stroke="url(#paint13_linear_632_22)" stroke-width="5"/>
<path opacity="0.217391" d="M1674.2 1968.36C1678.03 1977.32 1687.39 1982.89 1697.88 1982.46L2144.76 1964.16C2151.88 1963.87 2158.72 1960.83 2163.66 1955.76L2568.42 1540.02C2572.52 1535.81 2575.03 1530.49 2575.53 1524.94L2620.38 1030.59C2621.16 1021.9 2616.95 1013.74 2609.33 1009.2L2273.61 809.391C2265.99 804.858 2256.14 804.65 2247.8 808.845L1773.28 1047.46C1767.95 1050.14 1763.66 1054.41 1761.13 1059.55L1511.36 1567.53C1508.31 1573.72 1508.06 1580.69 1510.66 1586.77L1674.2 1968.36Z" stroke="url(#paint14_linear_632_22)" stroke-width="5"/>
<path opacity="0.231884" d="M1615.32 1943.09C1618.67 1952.22 1627.73 1958.26 1638.23 1958.35L2082.01 1962.28C2089.14 1962.35 2096.14 1959.65 2101.35 1954.84L2525.19 1563.38C2529.51 1559.38 2532.31 1554.2 2533.12 1548.69L2604.52 1061.73C2605.78 1053.1 2602.02 1044.74 2594.65 1039.83L2272.94 825.619C2265.58 820.714 2255.74 820.014 2247.17 823.786L1763.9 1036.5C1758.44 1038.91 1753.92 1042.95 1751.11 1047.95L1475.85 1538.35C1472.47 1544.37 1471.84 1551.31 1474.1 1557.5L1615.32 1943.09Z" stroke="url(#paint15_linear_632_22)" stroke-width="5"/>
<path opacity="0.246377" d="M1558.26 1916.79C1561.11 1926.08 1569.84 1932.56 1580.35 1933.18L2019.71 1958.99C2026.83 1959.41 2033.96 1957.08 2039.42 1952.54L2480.7 1586.01C2485.22 1582.25 2488.3 1577.22 2489.41 1571.78L2586.65 1093.38C2588.39 1084.82 2585.08 1076.29 2577.98 1071.02L2271.02 843.205C2263.92 837.936 2254.12 836.744 2245.35 840.082L1754.98 1026.72C1749.4 1028.85 1744.68 1032.65 1741.6 1037.49L1442.16 1509.28C1438.45 1515.12 1437.44 1522 1439.37 1528.29L1558.26 1916.79Z" stroke="url(#paint16_linear_632_22)" stroke-width="5"/>
<path opacity="0.26087" d="M1503.06 1889.56C1505.4 1898.99 1513.79 1905.92 1524.27 1907.06L1957.92 1954.33C1965.01 1955.1 1972.25 1953.13 1977.95 1948.88L2434.99 1607.87C2439.71 1604.35 2443.05 1599.5 2444.45 1594.13L2566.77 1125.43C2568.97 1116.97 2566.13 1108.27 2559.31 1102.65L2267.77 862.071C2260.96 856.448 2251.23 854.764 2242.28 857.659L1746.45 1018.14C1740.77 1019.98 1735.85 1023.53 1732.53 1028.19L1410.26 1480.42C1406.24 1486.05 1404.86 1492.86 1406.44 1499.24L1503.06 1889.56Z" stroke="url(#paint17_linear_632_22)" stroke-width="5"/>
<path opacity="0.275362" d="M1449.75 1861.5C1451.57 1871.05 1459.6 1878.41 1470.03 1880.08L1896.74 1948.33C1903.76 1949.45 1911.1 1947.85 1917 1943.9L2388.14 1628.91C2393.03 1625.64 2396.61 1620.98 2398.3 1615.7L2544.86 1157.76C2547.52 1149.43 2545.15 1140.59 2538.64 1134.62L2263.14 882.138C2256.63 876.171 2246.99 873.995 2237.9 876.44L1738.23 1010.75C1732.47 1012.3 1727.38 1015.59 1723.81 1020.07L1380.12 1451.85C1375.81 1457.27 1374.06 1463.99 1375.28 1470.43L1449.75 1861.5Z" stroke="url(#paint18_linear_632_22)" stroke-width="5"/>
<path opacity="0.289855" d="M1398.37 1832.72C1399.67 1842.38 1407.31 1850.16 1417.66 1852.35L1836.21 1941.04C1843.16 1942.51 1850.56 1941.28 1856.66 1937.64L2340.18 1649.06C2345.23 1646.06 2349.05 1641.6 2351.02 1636.42L2520.92 1190.28C2524.04 1182.09 2522.14 1173.13 2515.96 1166.83L2257.07 903.322C2250.88 897.023 2241.36 894.358 2232.14 896.346L1730.25 1004.57C1724.43 1005.83 1719.19 1008.84 1715.4 1013.12L1351.71 1423.67C1347.12 1428.85 1345.01 1435.47 1345.88 1441.95L1398.37 1832.72Z" stroke="url(#paint19_linear_632_22)" stroke-width="5"/>
<path opacity="0.304348" d="M1348.94 1803.33C1349.71 1813.07 1356.95 1821.26 1367.18 1823.97L1776.42 1932.5C1783.28 1934.32 1790.72 1933.47 1796.99 1930.15L2291.19 1668.3C2296.37 1665.55 2300.41 1661.31 2302.65 1656.25L2494.97 1222.88C2498.53 1214.85 2497.12 1205.79 2491.27 1199.17L2249.5 925.54C2243.65 918.922 2234.27 915.772 2224.96 917.297L1722.44 999.596C1716.59 1000.56 1711.21 1003.3 1707.21 1007.37L1324.99 1395.96C1320.14 1400.89 1317.68 1407.38 1318.2 1413.9L1348.94 1803.33Z" stroke="url(#paint20_linear_632_22)" stroke-width="5"/>
<path opacity="0.318841" d="M1354.77 1773.44C1355.01 1783.24 1361.81 1791.82 1371.91 1795.05L1770.72 1922.77C1777.46 1924.93 1784.91 1924.45 1791.34 1921.45L2294.51 1686.56C2299.81 1684.08 2304.06 1680.06 2306.56 1675.14L2520.31 1255.45C2524.3 1247.6 2523.38 1238.46 2517.89 1231.53L2293.68 948.705C2288.19 941.78 2278.99 938.15 2269.6 939.209L1768.03 995.824C1762.15 996.487 1756.66 998.945 1752.46 1002.8L1353.21 1368.79C1348.12 1373.46 1345.32 1379.81 1345.47 1386.35L1354.77 1773.44Z" stroke="url(#paint21_linear_632_22)" stroke-width="5"/>
<path opacity="0.333333" d="M1309.29 1743.15C1308.99 1752.99 1315.33 1761.94 1325.26 1765.69L1712.59 1911.89C1719.19 1914.39 1726.64 1914.28 1733.19 1911.61L2243.63 1703.8C2249.03 1701.61 2253.47 1697.81 2256.22 1693.04L2490.37 1287.9C2494.79 1280.24 2494.37 1271.04 2489.25 1263.82L2282.98 972.727C2277.87 965.511 2268.87 961.409 2259.44 961.999L1760.36 993.25C1754.48 993.618 1748.9 995.791 1744.51 999.415L1329.75 1342.25C1324.42 1346.66 1321.29 1352.85 1321.09 1359.39L1309.29 1743.15Z" stroke="url(#paint22_linear_632_22)" stroke-width="5"/>
<path opacity="0.347826" d="M1265.79 1712.57C1264.94 1722.42 1270.81 1731.73 1280.54 1735.99L1655.37 1899.93C1661.81 1902.74 1669.23 1903.02 1675.9 1900.68L2191.91 1720C2197.39 1718.08 2202 1714.53 2205 1709.91L2458.48 1320.1C2463.32 1312.67 2463.39 1303.43 2458.67 1295.94L2270.68 997.518C2265.96 990.027 2257.19 985.461 2247.75 985.581L1752.66 991.867C1746.79 991.941 1741.13 993.825 1736.58 997.215L1307.84 1316.42C1302.3 1320.55 1298.85 1326.58 1298.29 1333.1L1265.79 1712.57Z" stroke="url(#paint23_linear_632_22)" stroke-width="5"/>
<path opacity="0.362319" d="M1224.26 1681.81C1222.88 1691.65 1228.24 1701.29 1237.74 1706.05L1599.12 1886.92C1605.39 1890.06 1612.76 1890.7 1619.52 1888.7L2139.4 1735.11C2144.95 1733.48 2149.72 1730.16 2152.96 1725.71L2424.68 1351.98C2429.91 1344.79 2430.48 1335.53 2426.17 1327.78L2256.72 1022.99C2252.42 1015.24 2243.9 1010.22 2234.48 1009.87L1744.86 991.661C1739.02 991.444 1733.29 993.038 1728.59 996.187L1287.43 1291.38C1281.69 1295.21 1277.93 1301.06 1277.01 1307.55L1224.26 1681.81Z" stroke="url(#paint24_linear_632_22)" stroke-width="5"/>
<path opacity="0.376812" d="M1184.71 1650.97C1182.78 1660.77 1187.61 1670.73 1196.85 1675.97L1543.89 1872.94C1549.96 1876.38 1557.26 1877.4 1564.09 1875.74L2086.18 1749.11C2091.78 1747.75 2096.71 1744.69 2100.17 1740.41L2388.99 1383.43C2394.61 1376.49 2395.68 1367.24 2391.8 1359.25L2241.1 1049.04C2237.22 1041.05 2229 1035.59 2219.61 1034.78L1736.89 992.619C1731.1 992.114 1725.32 993.418 1720.48 996.322L1268.45 1267.18C1262.54 1270.72 1258.47 1276.37 1257.2 1282.81L1184.71 1650.97Z" stroke="url(#paint25_linear_632_22)" stroke-width="5"/>
<path opacity="0.391304" d="M1147.1 1620.16C1144.63 1629.89 1148.91 1640.13 1157.86 1645.85L1489.72 1858.04C1495.57 1861.79 1502.79 1863.16 1509.67 1861.84L2032.33 1761.97C2037.97 1760.89 2043.02 1758.08 2046.7 1753.98L2351.47 1414.36C2357.45 1407.69 2359.03 1398.47 2355.6 1390.27L2223.8 1075.59C2220.36 1067.39 2212.45 1061.5 2203.14 1060.21L1728.69 994.723C1722.97 993.934 1717.16 994.947 1712.18 997.603L1250.85 1243.9C1244.77 1247.14 1240.41 1252.59 1238.8 1258.96L1147.1 1620.16Z" stroke="url(#paint26_linear_632_22)" stroke-width="5"/>
<path opacity="0.405797" d="M1111.42 1589.47C1108.41 1599.12 1112.13 1609.61 1120.75 1615.79L1436.65 1842.28C1442.28 1846.32 1449.38 1848.05 1456.31 1847.08L1977.91 1773.65C1983.57 1772.86 1988.75 1770.3 1992.63 1766.4L2312.17 1444.67C2318.5 1438.3 2320.59 1429.13 2317.61 1420.73L2204.8 1102.53C2201.82 1094.14 2194.26 1087.85 2185.04 1086.1L1720.19 997.953C1714.55 996.883 1708.72 997.607 1703.63 1000.01L1234.55 1221.6C1228.32 1224.54 1223.69 1229.76 1221.73 1236.06L1111.42 1589.47Z" stroke="url(#paint27_linear_632_22)" stroke-width="5"/>
<path opacity="0.42029" d="M1077.63 1559.02C1074.09 1568.54 1077.22 1579.25 1085.48 1585.88L1384.72 1825.74C1390.11 1830.05 1397.08 1832.13 1404.02 1831.5L1923 1784.15C1928.67 1783.63 1933.96 1781.34 1938.03 1777.63L2271.13 1474.29C2277.8 1468.22 2280.39 1459.13 2277.89 1450.57L2184.1 1129.79C2181.6 1121.23 2174.4 1114.55 2165.31 1112.34L1711.34 1002.28C1705.79 1000.94 1699.96 1001.38 1694.77 1003.53L1219.49 1200.34C1213.13 1202.97 1208.23 1207.97 1205.92 1214.17L1077.63 1559.02Z" stroke="url(#paint28_linear_632_22)" stroke-width="5"/>
<path opacity="0.434783" d="M1045.7 1528.89C1041.64 1538.26 1044.16 1549.16 1052.04 1556.21L1333.97 1808.46C1339.09 1813.04 1345.92 1815.47 1352.86 1815.18L1867.66 1793.45C1873.33 1793.21 1878.72 1791.17 1882.98 1787.67L2228.44 1503.13C2235.42 1497.37 2238.51 1488.39 2236.49 1479.68L2161.71 1157.27C2159.69 1148.57 2152.89 1141.51 2143.95 1138.86L1702.08 1007.69C1696.63 1006.08 1690.81 1006.23 1685.53 1008.12L1205.59 1180.17C1199.11 1182.49 1193.96 1187.25 1191.31 1193.35L1045.7 1528.89Z" stroke="url(#paint29_linear_632_22)" stroke-width="5"/>
<path opacity="0.449275" d="M1015.59 1499.18C1011.01 1508.37 1012.92 1519.42 1020.38 1526.87L1284.42 1790.52C1289.27 1795.36 1295.93 1798.12 1302.86 1798.17L1811.99 1801.53C1817.64 1801.56 1823.12 1799.79 1827.55 1796.49L2184.14 1531.1C2191.42 1525.68 2195 1516.83 2193.47 1508.01L2137.63 1184.88C2136.11 1176.06 2129.72 1168.66 2120.97 1165.56L1692.35 1014.15C1687.02 1012.27 1681.21 1012.13 1675.85 1013.77L1192.77 1161.15C1186.19 1163.16 1180.79 1167.67 1177.82 1173.64L1015.59 1499.18Z" stroke="url(#paint30_linear_632_22)" stroke-width="5"/>
<path opacity="0.463768" d="M987.249 1469.97C982.167 1478.96 983.447 1490.12 990.456 1497.94L1236.1 1771.99C1240.66 1777.07 1247.13 1780.16 1254.04 1780.54L1756.04 1808.38C1761.67 1808.69 1767.22 1807.18 1771.82 1804.09L2138.31 1558.14C2145.87 1553.06 2149.93 1544.37 2148.91 1535.46L2111.87 1212.53C2110.85 1203.62 2104.91 1195.89 2096.36 1192.37L1682.09 1021.62C1676.88 1019.48 1671.11 1019.06 1665.68 1020.44L1180.96 1143.33C1174.29 1145.01 1168.66 1149.27 1165.36 1155.11L987.249 1469.97Z" stroke="url(#paint31_linear_632_22)" stroke-width="5"/>
<path opacity="0.478261" d="M960.62 1441.37C955.052 1450.11 955.695 1461.35 962.23 1469.51L1189.03 1752.92C1193.28 1758.23 1199.56 1761.64 1206.41 1762.35L1699.89 1814C1705.49 1814.58 1711.11 1813.34 1715.87 1810.47L2091.02 1584.17C2098.84 1579.45 2103.38 1570.95 2102.86 1561.98L2084.46 1240.13C2083.94 1231.16 2078.46 1223.14 2070.15 1219.2L1671.25 1030.08C1666.18 1027.68 1660.45 1026.98 1654.95 1028.1L1170.07 1126.73C1163.33 1128.11 1157.48 1132.09 1153.86 1137.78L960.62 1441.37Z" stroke="url(#paint32_linear_632_22)" stroke-width="5"/>
<path opacity="0.492754" d="M935.647 1413.44C929.612 1421.92 929.612 1433.18 935.647 1441.66L1143.22 1733.39C1147.16 1738.91 1153.22 1742.63 1160.01 1743.68L1643.63 1818.39C1649.18 1819.24 1654.86 1818.27 1659.77 1815.62L2042.35 1609.12C2050.41 1604.78 2055.41 1596.49 2055.41 1587.49L2055.41 1267.61C2055.41 1258.61 2050.41 1250.32 2042.35 1245.98L1659.77 1039.48C1654.86 1036.83 1649.18 1035.85 1643.63 1036.71L1160.01 1111.42C1153.22 1112.47 1147.16 1116.18 1143.22 1121.71L935.647 1413.44Z" stroke="url(#paint33_linear_632_22)" stroke-width="5"/>
<path opacity="0.507246" d="M912.268 1386.26C905.785 1394.45 905.142 1405.7 910.655 1414.47L1098.7 1713.46C1102.29 1719.19 1108.13 1723.2 1114.85 1724.58L1587.32 1821.54C1592.81 1822.67 1598.54 1821.96 1603.6 1819.54L1992.39 1632.94C2000.66 1628.98 2006.11 1620.93 2006.63 1611.94L2024.76 1294.87C2025.27 1285.87 2020.77 1277.35 2013 1272.61L1647.62 1049.8C1642.86 1046.9 1637.24 1045.64 1631.66 1046.24L1150.71 1097.41C1143.87 1098.14 1137.61 1101.57 1133.38 1106.92L912.268 1386.26Z" stroke="url(#paint34_linear_632_22)" stroke-width="5"/>
<path opacity="0.521739" d="M917.059 1359.92C910.152 1367.8 908.869 1378.98 913.839 1388L1082.1 1693.21C1085.35 1699.12 1090.95 1703.42 1097.58 1705.13L1557.69 1823.48C1563.11 1824.87 1568.88 1824.44 1574.08 1822.24L1967.87 1655.58C1976.32 1652 1982.21 1644.22 1983.23 1635.26L2019.18 1321.84C2020.21 1312.88 2016.22 1304.15 2008.76 1299.03L1661.38 1060.98C1656.8 1057.84 1651.25 1056.31 1645.63 1056.64L1168.72 1084.73C1161.85 1085.14 1155.41 1088.28 1150.88 1093.44L917.059 1359.92Z" stroke="url(#paint35_linear_632_22)" stroke-width="5"/>
<path opacity="0.536232" d="M923.304 1334.48C915.998 1342.01 914.083 1353.09 918.493 1362.32L1066.79 1672.69C1069.69 1678.77 1075.03 1683.35 1081.55 1685.38L1528.15 1824.2C1533.5 1825.86 1539.31 1825.69 1544.63 1823.73L1942.21 1676.97C1950.84 1673.78 1957.14 1666.29 1958.67 1657.4L2012.07 1348.44C2013.61 1339.54 2010.14 1330.64 2003.01 1325.17L1674.37 1072.99C1669.97 1069.61 1664.51 1067.81 1658.86 1067.88L1187.31 1073.42C1180.42 1073.5 1173.8 1076.35 1168.99 1081.3L923.304 1334.48Z" stroke="url(#paint36_linear_632_22)" stroke-width="5"/>
<path opacity="0.550725" d="M904.282 1310.01C896.605 1317.17 894.071 1328.1 897.905 1337.51L1026.12 1651.97C1028.66 1658.2 1033.73 1663.06 1040.13 1665.41L1472.15 1823.71C1477.41 1825.64 1483.24 1825.75 1488.69 1824.02L1888.88 1697.07C1897.65 1694.29 1904.35 1687.11 1906.39 1678.32L1976.83 1374.59C1978.87 1365.8 1975.93 1356.75 1969.16 1350.94L1659.91 1085.78C1655.7 1082.17 1650.32 1080.1 1644.66 1079.9L1179.74 1063.48C1172.84 1063.24 1166.06 1065.78 1160.98 1070.53L904.282 1310.01Z" stroke="url(#paint37_linear_632_22)" stroke-width="5"/>
<path opacity="0.565217" d="M886.561 1286.56C878.542 1293.34 875.403 1304.07 878.652 1313.61L986.743 1631.13C988.909 1637.49 993.69 1642.6 999.964 1645.27L1416.39 1822.04C1421.56 1824.24 1427.41 1824.62 1432.97 1823.14L1834.61 1715.84C1843.5 1713.46 1850.56 1706.63 1853.1 1697.96L1940.14 1400.24C1942.68 1391.57 1940.29 1382.41 1933.89 1376.29L1644.59 1099.32C1640.58 1095.48 1635.31 1093.13 1629.64 1092.67L1172.56 1054.93C1165.67 1054.36 1158.74 1056.6 1153.39 1061.12L886.561 1286.56Z" stroke="url(#paint38_linear_632_22)" stroke-width="5"/>
<path opacity="0.57971" d="M870.061 1264.19C861.732 1270.56 858.009 1281.06 860.663 1290.7L948.642 1610.21C950.427 1616.7 954.911 1622.06 961.038 1625.03L1360.95 1819.21C1366.02 1821.67 1371.87 1822.33 1377.54 1821.09L1779.49 1733.24C1788.47 1731.28 1795.89 1724.81 1798.9 1716.3L1902.07 1425.3C1905.09 1416.79 1903.24 1407.56 1897.23 1401.14L1628.39 1113.54C1624.6 1109.48 1619.44 1106.86 1613.76 1106.13L1165.69 1047.79C1158.82 1046.89 1151.76 1048.81 1146.16 1053.1L870.061 1264.19Z" stroke="url(#paint39_linear_632_22)" stroke-width="5"/>
<path opacity="0.594203" d="M854.696 1242.96C846.09 1248.9 841.806 1259.13 843.862 1268.82L911.807 1589.3C913.202 1595.88 917.377 1601.47 923.343 1604.76L1305.9 1815.24C1310.85 1817.96 1316.7 1818.91 1322.48 1817.92L1723.62 1749.26C1732.67 1747.71 1740.41 1741.62 1743.89 1733.3L1862.67 1449.72C1866.15 1441.4 1864.85 1432.13 1859.25 1425.43L1611.28 1128.4C1607.71 1124.13 1602.66 1121.24 1597 1120.23L1159.03 1042.05C1152.2 1040.83 1145.01 1042.43 1139.17 1046.46L854.696 1242.96Z" stroke="url(#paint40_linear_632_22)" stroke-width="5"/>
<path opacity="0.608696" d="M840.384 1222.89C831.534 1228.4 826.717 1238.31 828.174 1248.03L876.223 1568.44C877.222 1575.1 881.075 1580.92 886.866 1584.51L1251.29 1810.15C1256.12 1813.14 1261.96 1814.37 1267.83 1813.64L1667.1 1763.85C1676.19 1762.71 1684.22 1757.02 1688.15 1748.92L1821.98 1473.44C1825.92 1465.34 1825.16 1456.06 1820 1449.11L1593.21 1143.86C1589.88 1139.38 1584.97 1136.22 1579.31 1134.93L1152.5 1037.72C1145.72 1036.17 1138.42 1037.44 1132.35 1041.22L840.384 1222.89Z" stroke="url(#paint41_linear_632_22)" stroke-width="5"/>
<path opacity="0.623188" d="M827.035 1204.04C817.976 1209.1 812.656 1218.67 813.516 1228.36L841.869 1547.71C842.466 1554.43 845.986 1560.46 851.586 1564.34L1197.2 1803.98C1201.89 1807.23 1207.72 1808.76 1213.67 1808.28L1610.01 1777C1619.12 1776.28 1627.42 1771.01 1631.78 1763.15L1780.08 1496.4C1784.45 1488.54 1784.23 1479.29 1779.51 1472.11L1574.17 1159.86C1571.08 1155.17 1566.32 1151.75 1560.69 1150.18L1146 1034.78C1139.28 1032.91 1131.89 1033.84 1125.6 1037.35L827.035 1204.04Z" stroke="url(#paint42_linear_632_22)" stroke-width="5"/>
<path opacity="0.637681" d="M814.563 1186.44C805.33 1191.04 799.54 1200.23 799.811 1209.85L808.725 1527.15C808.916 1533.91 812.091 1540.14 817.486 1544.31L1143.69 1796.76C1148.24 1800.28 1154.03 1802.09 1160.07 1801.89L1552.46 1788.7C1561.57 1788.39 1570.1 1783.55 1574.88 1775.96L1737.03 1518.55C1741.81 1510.97 1742.13 1501.77 1737.87 1494.39L1554.13 1176.35C1551.31 1171.46 1546.69 1167.77 1541.1 1165.92L1139.44 1033.24C1132.8 1031.04 1125.33 1031.63 1118.85 1034.87L814.563 1186.44Z" stroke="url(#paint43_linear_632_22)" stroke-width="5"/>
<path opacity="0.652174" d="M802.877 1170.11C793.506 1174.25 787.281 1183.03 786.972 1192.56L776.764 1506.83C776.544 1513.62 779.364 1520.02 784.537 1524.48L1090.82 1788.53C1095.2 1792.31 1100.96 1794.42 1107.07 1794.49L1494.55 1798.94C1503.63 1799.04 1512.36 1794.63 1517.53 1787.34L1692.9 1539.85C1698.07 1532.55 1698.91 1523.45 1695.11 1515.9L1533.08 1193.28C1530.53 1188.2 1526.08 1184.24 1520.53 1182.1L1132.75 1033.07C1126.2 1030.55 1118.67 1030.79 1111.99 1033.74L802.877 1170.11Z" stroke="url(#paint44_linear_632_22)" stroke-width="5"/>
<path opacity="0.666667" d="M791.889 1155.09C782.415 1158.75 775.793 1167.11 774.916 1176.5L745.958 1486.8C745.325 1493.59 747.778 1500.16 752.716 1504.9L1038.65 1779.33C1042.86 1783.37 1048.57 1785.79 1054.73 1786.14L1436.38 1807.71C1445.4 1808.22 1454.3 1804.26 1459.84 1797.28L1647.75 1560.25C1653.28 1553.27 1654.64 1544.29 1651.32 1536.58L1511 1210.59C1508.73 1205.33 1504.46 1201.1 1498.97 1198.68L1125.82 1034.25C1119.38 1031.42 1111.8 1031.31 1104.95 1033.96L791.889 1155.09Z" stroke="url(#paint45_linear_632_22)" stroke-width="5"/>
<path opacity="0.681159" d="M781.509 1141.38C771.966 1144.58 764.983 1152.48 763.556 1161.7L716.274 1467.12C715.226 1473.89 717.302 1480.61 721.988 1485.62L987.228 1769.2C991.249 1773.5 996.895 1776.22 1003.11 1776.86L1378.04 1815.02C1386.98 1815.93 1396.02 1812.43 1401.89 1805.78L1601.65 1579.71C1607.52 1573.06 1609.37 1564.23 1606.54 1556.4L1487.86 1228.24C1485.89 1222.79 1481.82 1218.3 1476.39 1215.59L1118.58 1036.77C1112.26 1033.61 1104.66 1033.15 1097.65 1035.5L781.509 1141.38Z" stroke="url(#paint46_linear_632_22)" stroke-width="5"/>
<path opacity="0.695652" d="M771.644 1129.01C762.066 1131.74 754.762 1139.17 752.802 1148.19L687.674 1447.84C686.212 1454.57 687.901 1461.42 692.32 1466.69L936.608 1758.19C940.427 1762.75 945.997 1765.78 952.258 1766.7L1319.62 1820.87C1328.46 1822.18 1337.6 1819.14 1343.79 1812.84L1554.67 1598.2C1560.85 1591.9 1563.19 1583.25 1560.86 1575.32L1463.67 1246.16C1462.01 1240.55 1458.15 1235.79 1452.8 1232.78L1110.95 1040.59C1104.76 1037.12 1097.15 1036.29 1090 1038.33L771.644 1129.01Z" stroke="url(#paint47_linear_632_22)" stroke-width="5"/>
<path opacity="0.710145" d="M762.207 1117.98C752.627 1120.25 745.04 1127.2 742.569 1135.98L660.124 1429C658.249 1435.66 659.542 1442.64 663.678 1448.16L886.842 1746.34C890.443 1751.15 895.923 1754.49 902.214 1755.71L1261.22 1825.28C1269.93 1826.97 1279.15 1824.4 1285.62 1818.46L1506.89 1615.68C1513.36 1609.75 1516.17 1601.3 1514.32 1593.31L1438.42 1264.29C1437.09 1258.53 1433.44 1253.51 1428.19 1250.21L1102.84 1045.68C1096.81 1041.89 1089.2 1040.71 1081.93 1042.42L762.207 1117.98Z" stroke="url(#paint48_linear_632_22)" stroke-width="5"/>
<path opacity="0.724638" d="M753.108 1108.3C743.557 1110.11 735.724 1116.57 732.766 1125.09L633.582 1410.65C631.297 1417.23 632.185 1424.3 636.021 1430.07L837.973 1733.71C841.341 1738.77 846.716 1742.43 853.024 1743.95L1202.93 1828.27C1211.5 1830.33 1220.76 1828.22 1227.49 1822.66L1458.37 1632.14C1465.1 1626.59 1468.36 1618.36 1467.02 1610.34L1412.09 1282.6C1411.1 1276.69 1407.7 1271.41 1402.55 1267.81L1094.17 1052C1088.32 1047.9 1080.73 1046.36 1073.36 1047.75L753.108 1108.3Z" stroke="url(#paint49_linear_632_22)" stroke-width="5"/>
<path opacity="0.73913" d="M744.257 1099.97C734.764 1101.33 726.725 1107.29 723.304 1115.52L608.004 1392.84C605.313 1399.31 605.789 1406.47 609.31 1412.46L790.045 1720.34C793.162 1725.65 798.414 1729.62 804.727 1731.45L1144.84 1829.84C1153.24 1832.27 1162.52 1830.62 1169.48 1825.46L1409.2 1647.55C1416.16 1642.38 1419.85 1634.41 1419 1626.38L1384.7 1301.02C1384.06 1294.98 1380.91 1289.45 1375.9 1285.55L1084.88 1059.52C1079.21 1055.11 1071.68 1053.2 1064.21 1054.27L744.257 1099.97Z" stroke="url(#paint50_linear_632_22)" stroke-width="5"/>
<path opacity="0.753623" d="M735.568 1092.98C726.161 1093.9 717.952 1099.36 714.095 1107.28L583.346 1375.61C580.255 1381.95 580.312 1389.16 583.502 1395.38L743.096 1706.29C745.944 1711.84 751.057 1716.14 757.361 1718.28L1087.05 1830.05C1095.26 1832.83 1104.52 1831.63 1111.68 1826.87L1359.44 1661.89C1366.6 1657.12 1370.71 1649.42 1370.36 1641.4L1356.25 1319.5C1355.98 1313.35 1353.1 1307.56 1348.22 1303.36L1074.89 1068.18C1069.43 1063.48 1061.96 1061.2 1054.42 1061.93L735.568 1092.98Z" stroke="url(#paint51_linear_632_22)" stroke-width="5"/>
<path opacity="0.768116" d="M726.954 1087.32C717.66 1087.81 709.315 1092.78 705.05 1100.36L559.562 1358.98C556.078 1365.18 555.71 1372.43 558.554 1378.85L697.161 1691.63C699.724 1697.41 704.678 1702.02 710.958 1704.47L1029.63 1828.9C1037.63 1832.03 1046.85 1831.28 1054.18 1826.91L1309.18 1675.15C1316.51 1670.78 1321.01 1663.37 1321.15 1655.4L1326.73 1337.98C1326.84 1331.73 1324.26 1325.7 1319.54 1321.21L1064.14 1077.94C1058.9 1072.95 1051.52 1070.31 1043.93 1070.71L726.954 1087.32Z" stroke="url(#paint52_linear_632_22)" stroke-width="5"/>
<path opacity="0.782609" d="M718.329 1082.98C709.172 1083.05 700.725 1087.52 696.079 1094.76L536.6 1343.01C532.732 1349.03 531.934 1356.3 534.417 1362.91L652.271 1676.39C654.529 1682.4 659.306 1687.33 665.545 1690.1L972.668 1826.45C980.445 1829.9 989.585 1829.59 997.07 1825.63L1258.47 1687.32C1265.96 1683.36 1270.82 1676.25 1271.44 1668.36L1296.17 1356.42C1296.67 1350.08 1294.4 1343.83 1289.85 1339.03L1052.55 1088.75C1047.55 1083.47 1040.28 1080.47 1032.66 1080.53L718.329 1082.98Z" stroke="url(#paint53_linear_632_22)" stroke-width="5"/>
<path opacity="0.797101" d="M709.613 1079.94C700.614 1079.61 692.097 1083.59 687.1 1090.46L514.413 1327.71C510.17 1333.54 508.94 1340.81 511.047 1347.59L608.455 1660.66C610.39 1666.88 614.968 1672.13 621.15 1675.22L916.247 1822.72C923.78 1826.49 932.821 1826.61 940.428 1823.06L1207.41 1698.39C1215.02 1694.84 1220.22 1688.06 1221.32 1680.26L1264.57 1374.76C1265.48 1368.36 1263.53 1361.88 1259.18 1356.79L1040.07 1100.55C1035.33 1095 1028.19 1091.64 1020.55 1091.36L709.613 1079.94Z" stroke="url(#paint54_linear_632_22)" stroke-width="5"/>
<path opacity="0.811594" d="M700.721 1078.18C691.9 1077.47 683.343 1080.96 678.023 1087.45L492.946 1313.13C488.341 1318.74 486.675 1325.99 488.394 1332.91L565.733 1644.48C567.327 1650.9 571.686 1656.46 577.793 1659.87L860.438 1817.77C867.713 1821.83 876.63 1822.38 884.333 1819.24L1156.06 1708.36C1163.76 1705.22 1169.28 1698.78 1170.86 1691.1L1231.95 1392.95C1233.27 1386.51 1231.68 1379.81 1227.54 1374.43L1026.65 1113.28C1022.18 1107.48 1015.2 1103.76 1007.56 1103.14L700.721 1078.18Z" stroke="url(#paint55_linear_632_22)" stroke-width="5"/>
<path opacity="0.826087" d="M691.576 1077.67C682.951 1076.59 674.383 1079.6 668.768 1085.7L472.149 1299.28C467.194 1304.66 465.092 1311.85 466.411 1318.91L524.129 1627.91C525.363 1634.52 529.48 1640.39 535.494 1644.13L805.318 1811.64C812.319 1815.98 821.09 1816.94 828.865 1814.2L1104.49 1717.24C1112.26 1714.5 1118.08 1708.41 1120.11 1700.89L1198.33 1410.94C1200.07 1404.47 1198.85 1397.59 1194.94 1391.92L1012.23 1126.89C1008.05 1120.83 1001.24 1116.78 993.626 1115.82L691.576 1077.67Z" stroke="url(#paint56_linear_632_22)" stroke-width="5"/>
<path opacity="0.84058" d="M682.101 1078.39C673.688 1076.94 665.133 1079.49 659.253 1085.19L451.967 1286.18C446.677 1291.31 444.139 1298.43 445.045 1305.6L483.654 1611.03C484.51 1617.81 488.363 1623.98 494.266 1628.03L750.952 1804.38C757.667 1808.99 766.271 1810.34 774.094 1808.01L1052.77 1725.02C1060.6 1722.7 1066.69 1716.97 1069.16 1709.62L1163.73 1428.68C1165.91 1422.22 1165.06 1415.15 1161.41 1409.2L996.756 1141.31C992.891 1135.02 986.272 1130.63 978.702 1129.33L682.101 1078.39Z" stroke="url(#paint57_linear_632_22)" stroke-width="5"/>
<path opacity="0.855072" d="M672.222 1080.29C664.035 1078.5 655.517 1080.59 649.4 1085.89L432.346 1273.86C426.736 1278.72 423.765 1285.74 424.25 1293L444.321 1593.89C444.784 1600.82 448.35 1607.28 454.121 1611.66L697.409 1796.04C703.825 1800.9 712.243 1802.64 720.091 1800.71L1000.98 1731.73C1008.83 1729.8 1015.17 1724.45 1018.08 1717.29L1128.18 1446.13C1130.79 1439.69 1130.35 1432.46 1126.97 1426.25L980.197 1156.47C976.657 1149.96 970.253 1145.24 962.744 1143.61L672.222 1080.29Z" stroke="url(#paint58_linear_632_22)" stroke-width="5"/>
<path opacity="0.869565" d="M661.869 1083.34C653.92 1081.23 645.461 1082.88 639.135 1087.76L413.232 1262.33C407.318 1266.9 403.919 1273.8 403.973 1281.12L406.138 1576.55C406.19 1583.61 409.447 1590.36 415.067 1595.05L644.748 1786.69C650.855 1791.78 659.07 1793.88 666.921 1792.35L949.183 1737.37C957.035 1735.84 963.607 1730.86 966.925 1723.93L1091.7 1463.24C1094.75 1456.86 1094.73 1449.48 1091.65 1443.01L962.512 1172.31C959.31 1165.6 953.143 1160.57 945.713 1158.6L661.869 1083.34Z" stroke="url(#paint59_linear_632_22)" stroke-width="5"/>
<path opacity="0.884058" d="M650.972 1087.49C643.271 1085.08 634.892 1086.29 628.383 1090.77L394.568 1251.6C388.37 1255.86 384.547 1262.62 384.163 1269.98L369.106 1559.08C368.732 1566.25 371.658 1573.27 377.107 1578.27L593.025 1776.38C598.814 1781.69 606.809 1784.14 614.643 1783L897.445 1741.95C905.279 1740.82 912.056 1736.22 915.771 1729.53L1054.32 1479.96C1057.82 1473.67 1058.23 1466.17 1055.46 1459.45L943.664 1188.77C940.816 1181.87 934.903 1176.53 927.571 1174.23L650.972 1087.49Z" stroke="url(#paint60_linear_632_22)" stroke-width="5"/>
<path opacity="0.898551" d="M639.468 1092.71C632.025 1090.01 623.743 1090.8 617.076 1094.87L376.3 1241.69C369.837 1245.63 365.598 1252.21 364.772 1259.59L333.224 1541.54C332.413 1548.8 334.985 1556.07 340.243 1561.37L542.294 1765.18C547.757 1770.69 555.517 1773.47 563.315 1772.72L845.831 1745.51C853.629 1744.76 860.588 1740.56 864.682 1734.12L1016.08 1496.27C1020.02 1490.08 1020.89 1482.48 1018.45 1475.54L923.628 1205.76C921.146 1198.7 915.506 1193.07 908.29 1190.45L639.468 1092.71Z" stroke="url(#paint61_linear_632_22)" stroke-width="5"/>
<path opacity="0.913043" d="M627.294 1098.95C620.116 1095.97 611.948 1096.36 605.149 1100.01L358.374 1232.6C351.664 1236.2 347.019 1242.59 345.748 1249.96L298.487 1524C297.225 1531.31 299.424 1538.81 304.471 1544.41L492.6 1753.15C497.731 1758.84 505.244 1761.95 512.987 1761.57L794.405 1748.06C802.148 1747.68 809.266 1743.88 813.72 1737.72L977.012 1512.11C981.392 1506.06 982.723 1498.39 980.634 1491.23L902.377 1223.23C900.272 1216.02 894.924 1210.11 887.84 1207.17L627.294 1098.95Z" stroke="url(#paint62_linear_632_22)" stroke-width="5"/>
<path opacity="0.927536" d="M614.393 1106.15C607.486 1102.91 599.448 1102.91 592.541 1106.15L340.734 1224.33C333.799 1227.59 328.759 1233.76 327.041 1241.09L264.884 1506.5C263.163 1513.85 264.967 1521.57 269.784 1527.46L443.988 1740.35C448.781 1746.21 456.035 1749.62 463.706 1749.62L743.228 1749.62C750.898 1749.62 758.153 1746.21 762.946 1740.35L937.149 1527.46C941.966 1521.57 943.771 1513.85 942.05 1506.5L879.892 1241.09C878.175 1233.76 873.134 1227.59 866.2 1224.33L614.393 1106.15Z" stroke="url(#paint63_linear_632_22)" stroke-width="5"/>
<path opacity="0.942029" d="M600.711 1114.26C594.081 1110.77 586.187 1110.39 579.195 1113.22L323.327 1216.89C316.189 1219.78 310.766 1225.71 308.603 1232.98L232.403 1489.12C230.215 1496.48 231.608 1504.39 236.175 1510.55L396.496 1726.87C400.947 1732.88 407.933 1736.57 415.514 1736.94L692.359 1750.24C699.94 1750.6 707.309 1747.59 712.421 1742.04L896.534 1542.27C901.78 1536.58 904.067 1528.85 902.73 1521.32L856.162 1259.28C854.84 1251.84 850.122 1245.43 843.353 1241.87L600.711 1114.26Z" stroke="url(#paint64_linear_632_22)" stroke-width="5"/>
<path opacity="0.956522" d="M586.199 1123.22C579.85 1119.5 572.112 1118.76 565.058 1121.19L306.101 1210.27C298.782 1212.79 292.991 1218.45 290.386 1225.63L201.026 1471.92C198.367 1479.25 199.33 1487.33 203.631 1493.76L350.157 1712.76C354.263 1718.9 360.971 1722.87 368.447 1723.59L641.853 1749.93C649.329 1750.65 656.791 1748.04 662.199 1742.82L855.207 1556.52C860.872 1551.05 863.647 1543.33 862.709 1535.66L831.175 1277.72C830.256 1270.2 825.875 1263.56 819.287 1259.71L586.199 1123.22Z" stroke="url(#paint65_linear_632_22)" stroke-width="5"/>
<path opacity="0.971014" d="M570.81 1132.98C564.745 1129.05 557.176 1127.95 550.081 1129.97L289.001 1204.47C281.524 1206.61 275.381 1211.98 272.339 1219.04L170.732 1454.94C167.599 1462.22 168.119 1470.44 172.135 1477.12L304.999 1698.11C308.758 1704.36 315.18 1708.59 322.536 1709.66L591.763 1748.74C599.119 1749.8 606.653 1747.6 612.335 1742.72L813.208 1570.18C819.279 1564.96 822.547 1557.29 822.02 1549.48L804.927 1296.35C804.415 1288.77 800.384 1281.92 793.992 1277.78L570.81 1132.98Z" stroke="url(#paint66_linear_632_22)" stroke-width="5"/>
<path opacity="0.985507" d="M554.503 1143.48C548.726 1139.34 541.336 1137.9 534.222 1139.53L271.978 1199.49C264.367 1201.23 257.89 1206.29 254.418 1213.21L141.498 1438.25C137.89 1445.44 137.954 1453.79 141.668 1460.7L261.046 1682.97C264.457 1689.32 270.586 1693.8 277.808 1695.2L542.14 1746.69C549.362 1748.1 556.946 1746.3 562.88 1741.77L770.581 1583.22C777.045 1578.28 780.806 1570.68 780.701 1562.77L777.419 1315.09C777.318 1307.47 773.646 1300.44 767.466 1296.01L554.503 1143.48Z" stroke="url(#paint67_linear_632_22)" stroke-width="5"/>
<path d="M537.24 1154.65C531.753 1150.32 524.554 1148.55 517.441 1149.79L254.98 1195.3C247.259 1196.64 240.467 1201.37 236.576 1208.12L113.293 1421.9C109.214 1428.97 108.811 1437.41 112.209 1444.55L218.316 1667.44C221.379 1673.87 227.209 1678.57 234.283 1680.31L493.031 1743.85C500.105 1745.58 507.718 1744.19 513.88 1740.02L727.371 1595.61C734.209 1590.99 738.463 1583.5 738.789 1575.5L748.654 1333.87C748.966 1326.24 745.664 1319.03 739.708 1314.34L537.24 1154.65Z" stroke="url(#paint68_linear_632_22)" stroke-width="5"/>
<defs>
<filter id="filter0_f_632_22" x="1491.67" y="724.015" width="1102.14" height="859.303" filterUnits="userSpaceOnUse" color-interpolation-filters="sRGB">
<feFlood flood-opacity="0" result="BackgroundImageFix"/>
<feBlend mode="normal" in="SourceGraphic" in2="BackgroundImageFix" result="shape"/>
<feGaussianBlur stdDeviation="100" result="effect1_foregroundBlur_632_22"/>
</filter>
<filter id="filter1_f_632_22" x="62.2041" y="681.792" width="1130.47" height="875.78" filterUnits="userSpaceOnUse" color-interpolation-filters="sRGB">
<feFlood flood-opacity="0" result="BackgroundImageFix"/>
<feBlend mode="normal" in="SourceGraphic" in2="BackgroundImageFix" result="shape"/>
<feGaussianBlur stdDeviation="100" result="effect1_foregroundBlur_632_22"/>
</filter>
<filter id="filter2_f_632_22" x="695.449" y="539.107" width="1235.2" height="980.929" filterUnits="userSpaceOnUse" color-interpolation-filters="sRGB">
<feFlood flood-opacity="0" result="BackgroundImageFix"/>
<feBlend mode="normal" in="SourceGraphic" in2="BackgroundImageFix" result="shape"/>
<feGaussianBlur stdDeviation="125" result="effect1_foregroundBlur_632_22"/>
</filter>
<linearGradient id="paint0_linear_632_22" x1="2504.69" y1="2170.49" x2="2275.16" y2="589.215" gradientUnits="userSpaceOnUse">
<stop stop-color="#18FFFF"/>
<stop offset="1" stop-color="#088DA0"/>
</linearGradient>
<linearGradient id="paint1_linear_632_22" x1="2428.07" y1="2169.49" x2="2276.38" y2="594.75" gradientUnits="userSpaceOnUse">
<stop stop-color="#18FFFF"/>
<stop offset="1" stop-color="#088DA0"/>
</linearGradient>
<linearGradient id="paint2_linear_632_22" x1="2351.97" y1="2166.33" x2="2276.8" y2="601.225" gradientUnits="userSpaceOnUse">
<stop stop-color="#18FFFF"/>
<stop offset="1" stop-color="#088DA0"/>
</linearGradient>
<linearGradient id="paint3_linear_632_22" x1="2276.53" y1="2161.07" x2="2276.53" y2="608.58" gradientUnits="userSpaceOnUse">
<stop stop-color="#18FFFF"/>
<stop offset="1" stop-color="#088DA0"/>
</linearGradient>
<linearGradient id="paint4_linear_632_22" x1="2201.87" y1="2153.76" x2="2275.69" y2="616.779" gradientUnits="userSpaceOnUse">
<stop stop-color="#18FFFF"/>
<stop offset="1" stop-color="#088DA0"/>
</linearGradient>
<linearGradient id="paint5_linear_632_22" x1="2181.39" y1="2144.46" x2="2327.67" y2="625.812" gradientUnits="userSpaceOnUse">
<stop stop-color="#18FFFF"/>
<stop offset="1" stop-color="#088DA0"/>
</linearGradient>
<linearGradient id="paint6_linear_632_22" x1="2108.61" y1="2133.23" x2="2325.99" y2="635.689" gradientUnits="userSpaceOnUse">
<stop stop-color="#18FFFF"/>
<stop offset="1" stop-color="#088DA0"/>
</linearGradient>
<linearGradient id="paint7_linear_632_22" x1="2036.95" y1="2120.14" x2="2324.03" y2="646.445" gradientUnits="userSpaceOnUse">
<stop stop-color="#18FFFF"/>
<stop offset="1" stop-color="#088DA0"/>
</linearGradient>
<linearGradient id="paint8_linear_632_22" x1="1966.48" y1="2105.26" x2="2321.86" y2="658.131" gradientUnits="userSpaceOnUse">
<stop stop-color="#18FFFF"/>
<stop offset="1" stop-color="#088DA0"/>
</linearGradient>
<linearGradient id="paint9_linear_632_22" x1="1950.61" y1="2088.68" x2="2372.83" y2="670.817" gradientUnits="userSpaceOnUse">
<stop stop-color="#18FFFF"/>
<stop offset="1" stop-color="#088DA0"/>
</linearGradient>
<linearGradient id="paint10_linear_632_22" x1="1882.84" y1="2070.47" x2="2370.4" y2="684.588" gradientUnits="userSpaceOnUse">
<stop stop-color="#18FFFF"/>
<stop offset="1" stop-color="#088DA0"/>
</linearGradient>
<linearGradient id="paint11_linear_632_22" x1="1816.55" y1="2050.72" x2="2367.89" y2="699.539" gradientUnits="userSpaceOnUse">
<stop stop-color="#18FFFF"/>
<stop offset="1" stop-color="#088DA0"/>
</linearGradient>
<linearGradient id="paint12_linear_632_22" x1="1751.8" y1="2029.53" x2="2365.29" y2="715.777" gradientUnits="userSpaceOnUse">
<stop stop-color="#18FFFF"/>
<stop offset="1" stop-color="#088DA0"/>
</linearGradient>
<linearGradient id="paint13_linear_632_22" x1="1688.68" y1="2006.98" x2="2362.57" y2="733.412" gradientUnits="userSpaceOnUse">
<stop stop-color="#18FFFF"/>
<stop offset="1" stop-color="#088DA0"/>
</linearGradient>
<linearGradient id="paint14_linear_632_22" x1="1680.54" y1="1983.17" x2="2412.96" y2="752.557" gradientUnits="userSpaceOnUse">
<stop stop-color="#18FFFF"/>
<stop offset="1" stop-color="#088DA0"/>
</linearGradient>
<linearGradient id="paint15_linear_632_22" x1="1620.85" y1="1958.19" x2="2409.82" y2="773.322" gradientUnits="userSpaceOnUse">
<stop stop-color="#18FFFF"/>
<stop offset="1" stop-color="#088DA0"/>
</linearGradient>
<linearGradient id="paint16_linear_632_22" x1="1562.97" y1="1932.16" x2="2406.31" y2="795.812" gradientUnits="userSpaceOnUse">
<stop stop-color="#18FFFF"/>
<stop offset="1" stop-color="#088DA0"/>
</linearGradient>
<linearGradient id="paint17_linear_632_22" x1="1506.93" y1="1905.17" x2="2402.31" y2="820.119" gradientUnits="userSpaceOnUse">
<stop stop-color="#18FFFF"/>
<stop offset="1" stop-color="#088DA0"/>
</linearGradient>
<linearGradient id="paint18_linear_632_22" x1="1452.77" y1="1877.32" x2="2397.66" y2="846.318" gradientUnits="userSpaceOnUse">
<stop stop-color="#18FFFF"/>
<stop offset="1" stop-color="#088DA0"/>
</linearGradient>
<linearGradient id="paint19_linear_632_22" x1="1400.52" y1="1848.72" x2="2392.17" y2="874.469" gradientUnits="userSpaceOnUse">
<stop stop-color="#18FFFF"/>
<stop offset="1" stop-color="#088DA0"/>
</linearGradient>
<linearGradient id="paint20_linear_632_22" x1="1350.22" y1="1819.47" x2="2385.64" y2="904.6" gradientUnits="userSpaceOnUse">
<stop stop-color="#18FFFF"/>
<stop offset="1" stop-color="#088DA0"/>
</linearGradient>
<linearGradient id="paint21_linear_632_22" x1="1355.16" y1="1789.69" x2="2431.13" y2="936.715" gradientUnits="userSpaceOnUse">
<stop stop-color="#18FFFF"/>
<stop offset="1" stop-color="#088DA0"/>
</linearGradient>
<linearGradient id="paint22_linear_632_22" x1="1308.79" y1="1759.47" x2="2421.83" y2="970.782" gradientUnits="userSpaceOnUse">
<stop stop-color="#18FFFF"/>
<stop offset="1" stop-color="#088DA0"/>
</linearGradient>
<linearGradient id="paint23_linear_632_22" x1="1264.39" y1="1728.92" x2="2410.79" y2="1006.73" gradientUnits="userSpaceOnUse">
<stop stop-color="#18FFFF"/>
<stop offset="1" stop-color="#088DA0"/>
</linearGradient>
<linearGradient id="paint24_linear_632_22" x1="1221.96" y1="1698.15" x2="2397.76" y2="1044.46" gradientUnits="userSpaceOnUse">
<stop stop-color="#18FFFF"/>
<stop offset="1" stop-color="#088DA0"/>
</linearGradient>
<linearGradient id="paint25_linear_632_22" x1="1181.5" y1="1667.26" x2="2382.49" y2="1083.81" gradientUnits="userSpaceOnUse">
<stop stop-color="#18FFFF"/>
<stop offset="1" stop-color="#088DA0"/>
</linearGradient>
<linearGradient id="paint26_linear_632_22" x1="1142.99" y1="1636.34" x2="2364.78" y2="1124.6" gradientUnits="userSpaceOnUse">
<stop stop-color="#18FFFF"/>
<stop offset="1" stop-color="#088DA0"/>
</linearGradient>
<linearGradient id="paint27_linear_632_22" x1="1106.41" y1="1605.51" x2="2344.4" y2="1166.61" gradientUnits="userSpaceOnUse">
<stop stop-color="#18FFFF"/>
<stop offset="1" stop-color="#088DA0"/>
</linearGradient>
<linearGradient id="paint28_linear_632_22" x1="1071.74" y1="1574.86" x2="2321.17" y2="1209.56" gradientUnits="userSpaceOnUse">
<stop stop-color="#18FFFF"/>
<stop offset="1" stop-color="#088DA0"/>
</linearGradient>
<linearGradient id="paint29_linear_632_22" x1="1038.94" y1="1544.48" x2="2294.96" y2="1253.18" gradientUnits="userSpaceOnUse">
<stop stop-color="#18FFFF"/>
<stop offset="1" stop-color="#088DA0"/>
</linearGradient>
<linearGradient id="paint30_linear_632_22" x1="1007.97" y1="1514.47" x2="2265.66" y2="1297.12" gradientUnits="userSpaceOnUse">
<stop stop-color="#18FFFF"/>
<stop offset="1" stop-color="#088DA0"/>
</linearGradient>
<linearGradient id="paint31_linear_632_22" x1="978.791" y1="1484.93" x2="2233.21" y2="1341.07" gradientUnits="userSpaceOnUse">
<stop stop-color="#18FFFF"/>
<stop offset="1" stop-color="#088DA0"/>
</linearGradient>
<linearGradient id="paint32_linear_632_22" x1="951.354" y1="1455.92" x2="2197.59" y2="1384.66" gradientUnits="userSpaceOnUse">
<stop stop-color="#18FFFF"/>
<stop offset="1" stop-color="#088DA0"/>
</linearGradient>
<linearGradient id="paint33_linear_632_22" x1="925.605" y1="1427.55" x2="2158.84" y2="1427.55" gradientUnits="userSpaceOnUse">
<stop stop-color="#18FFFF"/>
<stop offset="1" stop-color="#088DA0"/>
</linearGradient>
<linearGradient id="paint34_linear_632_22" x1="901.486" y1="1399.89" x2="2117.06" y2="1469.4" gradientUnits="userSpaceOnUse">
<stop stop-color="#18FFFF"/>
<stop offset="1" stop-color="#088DA0"/>
</linearGradient>
<linearGradient id="paint35_linear_632_22" x1="905.578" y1="1373.01" x2="2099.03" y2="1509.88" gradientUnits="userSpaceOnUse">
<stop stop-color="#18FFFF"/>
<stop offset="1" stop-color="#088DA0"/>
</linearGradient>
<linearGradient id="paint36_linear_632_22" x1="911.168" y1="1346.99" x2="2078.27" y2="1548.69" gradientUnits="userSpaceOnUse">
<stop stop-color="#18FFFF"/>
<stop offset="1" stop-color="#088DA0"/>
</linearGradient>
<linearGradient id="paint37_linear_632_22" x1="891.541" y1="1321.9" x2="2028.37" y2="1585.56" gradientUnits="userSpaceOnUse">
<stop stop-color="#18FFFF"/>
<stop offset="1" stop-color="#088DA0"/>
</linearGradient>
<linearGradient id="paint38_linear_632_22" x1="873.266" y1="1297.79" x2="1976.23" y2="1620.26" gradientUnits="userSpaceOnUse">
<stop stop-color="#18FFFF"/>
<stop offset="1" stop-color="#088DA0"/>
</linearGradient>
<linearGradient id="paint39_linear_632_22" x1="856.267" y1="1274.74" x2="1922.11" y2="1652.61" gradientUnits="userSpaceOnUse">
<stop stop-color="#18FFFF"/>
<stop offset="1" stop-color="#088DA0"/>
</linearGradient>
<linearGradient id="paint40_linear_632_22" x1="840.462" y1="1252.79" x2="1866.32" y2="1682.46" gradientUnits="userSpaceOnUse">
<stop stop-color="#18FFFF"/>
<stop offset="1" stop-color="#088DA0"/>
</linearGradient>
<linearGradient id="paint41_linear_632_22" x1="825.768" y1="1231.99" x2="1809.14" y2="1709.71" gradientUnits="userSpaceOnUse">
<stop stop-color="#18FFFF"/>
<stop offset="1" stop-color="#088DA0"/>
</linearGradient>
<linearGradient id="paint42_linear_632_22" x1="812.098" y1="1212.38" x2="1750.89" y2="1734.31" gradientUnits="userSpaceOnUse">
<stop stop-color="#18FFFF"/>
<stop offset="1" stop-color="#088DA0"/>
</linearGradient>
<linearGradient id="paint43_linear_632_22" x1="799.366" y1="1194.01" x2="1691.86" y2="1756.24" gradientUnits="userSpaceOnUse">
<stop stop-color="#18FFFF"/>
<stop offset="1" stop-color="#088DA0"/>
</linearGradient>
<linearGradient id="paint44_linear_632_22" x1="787.48" y1="1176.9" x2="1632.32" y2="1775.55" gradientUnits="userSpaceOnUse">
<stop stop-color="#18FFFF"/>
<stop offset="1" stop-color="#088DA0"/>
</linearGradient>
<linearGradient id="paint45_linear_632_22" x1="776.353" y1="1161.1" x2="1572.54" y2="1792.28" gradientUnits="userSpaceOnUse">
<stop stop-color="#18FFFF"/>
<stop offset="1" stop-color="#088DA0"/>
</linearGradient>
<linearGradient id="paint46_linear_632_22" x1="765.891" y1="1146.61" x2="1512.77" y2="1806.54" gradientUnits="userSpaceOnUse">
<stop stop-color="#18FFFF"/>
<stop offset="1" stop-color="#088DA0"/>
</linearGradient>
<linearGradient id="paint47_linear_632_22" x1="756.002" y1="1133.47" x2="1453.2" y2="1818.44" gradientUnits="userSpaceOnUse">
<stop stop-color="#18FFFF"/>
<stop offset="1" stop-color="#088DA0"/>
</linearGradient>
<linearGradient id="paint48_linear_632_22" x1="746.595" y1="1121.67" x2="1394.04" y2="1828.12" gradientUnits="userSpaceOnUse">
<stop stop-color="#18FFFF"/>
<stop offset="1" stop-color="#088DA0"/>
</linearGradient>
<linearGradient id="paint49_linear_632_22" x1="737.576" y1="1111.24" x2="1335.43" y2="1835.73" gradientUnits="userSpaceOnUse">
<stop stop-color="#18FFFF"/>
<stop offset="1" stop-color="#088DA0"/>
</linearGradient>
<linearGradient id="paint50_linear_632_22" x1="728.855" y1="1102.17" x2="1277.5" y2="1841.44" gradientUnits="userSpaceOnUse">
<stop stop-color="#18FFFF"/>
<stop offset="1" stop-color="#088DA0"/>
</linearGradient>
<linearGradient id="paint51_linear_632_22" x1="720.339" y1="1094.46" x2="1220.36" y2="1845.4" gradientUnits="userSpaceOnUse">
<stop stop-color="#18FFFF"/>
<stop offset="1" stop-color="#088DA0"/>
</linearGradient>
<linearGradient id="paint52_linear_632_22" x1="711.941" y1="1088.11" x2="1164.08" y2="1847.79" gradientUnits="userSpaceOnUse">
<stop stop-color="#18FFFF"/>
<stop offset="1" stop-color="#088DA0"/>
</linearGradient>
<linearGradient id="paint53_linear_632_22" x1="703.568" y1="1083.1" x2="1108.7" y2="1848.76" gradientUnits="userSpaceOnUse">
<stop stop-color="#18FFFF"/>
<stop offset="1" stop-color="#088DA0"/>
</linearGradient>
<linearGradient id="paint54_linear_632_22" x1="695.138" y1="1079.41" x2="1054.27" y2="1848.47" gradientUnits="userSpaceOnUse">
<stop stop-color="#18FFFF"/>
<stop offset="1" stop-color="#088DA0"/>
</linearGradient>
<linearGradient id="paint55_linear_632_22" x1="686.563" y1="1077.03" x2="1000.77" y2="1847.06" gradientUnits="userSpaceOnUse">
<stop stop-color="#18FFFF"/>
<stop offset="1" stop-color="#088DA0"/>
</linearGradient>
<linearGradient id="paint56_linear_632_22" x1="677.761" y1="1075.93" x2="948.208" y2="1844.67" gradientUnits="userSpaceOnUse">
<stop stop-color="#18FFFF"/>
<stop offset="1" stop-color="#088DA0"/>
</linearGradient>
<linearGradient id="paint57_linear_632_22" x1="668.652" y1="1076.08" x2="896.559" y2="1841.42" gradientUnits="userSpaceOnUse">
<stop stop-color="#18FFFF"/>
<stop offset="1" stop-color="#088DA0"/>
</linearGradient>
<linearGradient id="paint58_linear_632_22" x1="659.16" y1="1077.44" x2="845.789" y2="1837.42" gradientUnits="userSpaceOnUse">
<stop stop-color="#18FFFF"/>
<stop offset="1" stop-color="#088DA0"/>
</linearGradient>
<linearGradient id="paint59_linear_632_22" x1="649.21" y1="1079.98" x2="795.856" y2="1832.77" gradientUnits="userSpaceOnUse">
<stop stop-color="#18FFFF"/>
<stop offset="1" stop-color="#088DA0"/>
</linearGradient>
<linearGradient id="paint60_linear_632_22" x1="638.731" y1="1083.65" x2="746.71" y2="1827.54" gradientUnits="userSpaceOnUse">
<stop stop-color="#18FFFF"/>
<stop offset="1" stop-color="#088DA0"/>
</linearGradient>
<linearGradient id="paint61_linear_632_22" x1="627.656" y1="1088.42" x2="698.3" y2="1821.8" gradientUnits="userSpaceOnUse">
<stop stop-color="#18FFFF"/>
<stop offset="1" stop-color="#088DA0"/>
</linearGradient>
<linearGradient id="paint62_linear_632_22" x1="615.921" y1="1094.22" x2="650.57" y2="1815.61" gradientUnits="userSpaceOnUse">
<stop stop-color="#18FFFF"/>
<stop offset="1" stop-color="#088DA0"/>
</linearGradient>
<linearGradient id="paint63_linear_632_22" x1="603.467" y1="1101.02" x2="603.467" y2="1809" gradientUnits="userSpaceOnUse">
<stop stop-color="#18FFFF"/>
<stop offset="1" stop-color="#088DA0"/>
</linearGradient>
<linearGradient id="paint64_linear_632_22" x1="590.238" y1="1108.75" x2="556.941" y2="1802.01" gradientUnits="userSpaceOnUse">
<stop stop-color="#18FFFF"/>
<stop offset="1" stop-color="#088DA0"/>
</linearGradient>
<linearGradient id="paint65_linear_632_22" x1="576.184" y1="1117.36" x2="510.943" y2="1794.65" gradientUnits="userSpaceOnUse">
<stop stop-color="#18FFFF"/>
<stop offset="1" stop-color="#088DA0"/>
</linearGradient>
<linearGradient id="paint66_linear_632_22" x1="561.257" y1="1126.79" x2="465.432" y2="1786.93" gradientUnits="userSpaceOnUse">
<stop stop-color="#18FFFF"/>
<stop offset="1" stop-color="#088DA0"/>
</linearGradient>
<linearGradient id="paint67_linear_632_22" x1="545.414" y1="1136.97" x2="420.373" y2="1778.85" gradientUnits="userSpaceOnUse">
<stop stop-color="#18FFFF"/>
<stop offset="1" stop-color="#088DA0"/>
</linearGradient>
<linearGradient id="paint68_linear_632_22" x1="528.618" y1="1147.85" x2="375.737" y2="1770.41" gradientUnits="userSpaceOnUse">
<stop stop-color="#18FFFF"/>
<stop offset="1" stop-color="#088DA0"/>
</linearGradient>
</defs>
</svg>
